# xmcd CD database file
#
# Track frame offsets:
#	150
#	22881
#	43770
#	69066
#	85026
#	102704
#	118835
#	143723
#	168940
#	188603
#	204957
#
# Disc length: 3094 seconds
#
# Revision: 0
# Processed by: cddbd v1.5.2PL0 Copyright (c) Steve Scherf et al.
# Submitted via: CDex 1.70beta2
#
DISCID=880c140b
DTITLE=David Lee Howard - Greatest Hits
DYEAR=2002
DGENRE=Country
TTITLE0=Wildwood Flower Trilogy
TTITLE1=Last Farewell
TTITLE2=Ghost Riders in the Sky
TTITLE3=(Cant Help) Fallin in Love
TTITLE4=Not Fade Away
TTITLE5=House of the Rising Sun
TTITLE6=Rock and Roll Medley
TTITLE7=Me and Bobby McGee
TTITLE8=I'm Crazy
TTITLE9=King of the Road/Singing the B
TTITLE10=Malaguena/Spanish Eyes
EXTD=YEAR: 2002
EXTT0=
EXTT1=
EXTT2=
EXTT3=
EXTT4=
EXTT5=
EXTT6=
EXTT7=
EXTT8=
EXTT9=
EXTT10=
PLAYORDER=
